<svg width="100" height="100" viewBox="0 0 100 100" fill="none" xmlns="http://www.w3.org/2000/svg">
<rect width="100" height="100" rx="20" fill="url(#gradient0_linear_1_1)"/>
<path d="M50 20C35.3644 20 23.3333 32.0333 23.3333 46.6667C23.3333 61.3 35.3644 73.3333 50 73.3333C64.6356 73.3333 76.6667 61.3 76.6667 46.6667C76.6667 32.0333 64.6356 20 50 20Z" fill="#FFFFFF"/>
<path d="M50 33.3333C40.1184 33.3333 32.5 39.1184 32.5 49.0001C32.5 58.8817 40.1184 66.6667 50 66.6667C59.8816 66.6667 67.5 58.8817 67.5 49.0001C67.5 39.1184 59.8816 33.3333 50 33.3333Z" fill="#4CAF50"/>
<text x="50" y="85" font-family="Arial, sans-serif" font-size="12" fill="#FFFFFF" text-anchor="middle">BERWYN</text>
<defs>
<linearGradient id="gradient0_linear_1_1" x1="0" y1="0" x2="100" y2="100" gradientUnits="userSpaceOnUse">
<stop stop-color="#4CAF50"/>
<stop offset="1" stop-color="#8BC34A"/>
</linearGradient>
</defs>
</svg>

